<svg xmlns="http://www.w3.org/2000/svg" viewBox="0 0 765.06 110.53" fill="#f2f2f2" height="3rem" width="12rem" preserveAspectRatio="xMidYMid" aria-hidden="true">
  <g transform="translate(-0.54 -0.06)">
    <path d="M7.28,110.6V.06H29V110.6Z"/>
    <path d="M74.44,110.6c-20.41,0-28-6.59-28-21.21V79.91c0-14.62,8.2-20.56,27.64-20.56H104c8.51,0,12.37,1.6,15.58,3.37V52.6c0-8.19-4.5-10-16.22-10H53.23l2.09-18.8h50.77c28.27,0,34.54,12.37,34.54,27.31V110.6c-6.11,0-13-3.38-14.62-13.66-2.57,7.87-9.8,13.66-22.49,13.66Zm45.14-35.51c-3.69-1.44-7.87-2.41-15.74-2.41H77.65c-6.75,0-9.64,2.25-9.64,9.64C68,89.55,70.9,92,77.49,92h26.19c7.71,0,14.62-2.09,15.9-9.32Z"/>
    <path d="M231.72,110.6V55.81c0-8.83-2.89-13.33-11.89-13.33h-28c-6.27,0-9.16,2.57-10.76,8.35V110.6H159.75V23.84h20.56V36.37c4.66-9.16,10.44-12.53,20.57-12.53h19c25.23,0,33.42,11.25,33.42,34.7V110.6Z"/>
    <path d="M436.08,78.63c0,23.45-9.64,32-36,32H322c.32-7.23,1-14.46,1.45-21.69h75.19c11.73,0,15.1-2.73,15.1-12.21,0-9.32-3.21-12.21-14.62-12.21H354.31c-26.51,0-35-9.48-35-29.72v-3.7c0-22,8.84-31,35.67-31h77.44c-.81,7.39-1.77,14.62-2.73,22H355c-10.6,0-13.66,3.38-13.66,12S344.35,46.33,355,46.33h44.18c27.47,0,36.95,9,36.95,28.44Z"/>
    <path d="M485.41,110.6c-23.3,0-33.26-9-33.26-30.53V54.37c0-21.53,10-30.53,33.26-30.53h28.75c23.46,0,33.42,9,33.42,30.53v25.7c0,21.53-10,30.53-33.42,30.53Zm40.64-56.23c0-8.84-3.69-11.89-11.89-11.89H485.41c-8,0-11.89,3.05-11.89,11.89v25.7c0,8.84,3.85,11.89,11.89,11.89h28.75c8.2,0,11.89-3,11.89-11.89Z"/>
    <path d="M563.49,110.6c1.12-6.11,2.08-12.37,3-18.64h60.09c5.94,0,8.83-1.77,8.83-9.16s-2.89-9.15-8.83-9.15H594.81c-19.76,0-29.24-5.47-29.24-20.09V44.24c0-16.06,9.64-20.4,30.37-20.4h59.12l-3,18.8H596.9c-5.94,0-8.83,1.77-8.83,9,0,7.06,2.89,9,8.83,9h31.81c19.6,0,29.24,5.63,29.24,20.08v9.64c0,16.07-9.64,20.25-30.36,20.25Z"/>
    <path d="M699.4,110.6c-20.4,0-27.95-6.59-27.95-21.21V79.91c0-14.62,8.19-20.56,27.63-20.56H729c8.52,0,12.37,1.6,15.59,3.37V52.6c0-8.19-4.5-10-16.23-10H678.2l2.08-18.8h50.77c28.28,0,34.54,12.37,34.54,27.31V110.6c-6.1,0-13-3.38-14.62-13.66-2.57,7.87-9.8,13.66-22.49,13.66Zm45.15-35.51c-3.7-1.44-7.87-2.41-15.75-2.41H702.62c-6.75,0-9.64,2.25-9.64,9.64,0,7.23,2.89,9.64,9.48,9.64h26.18c7.71,0,14.62-2.09,15.91-9.32Z"/>
    <path d="M7.54,7.06c-7,0-7-5.25-7-7h7Z"/>
    <path d="M28.54,7.06c7,0,7-5.25,7-7h-7Z"/>
    <path d="M28.54,103.54c7,0,7,5.25,7,7h-7Z"/>
    <path d="M7.54,103.54c-7,0-7,5.25-7,7h7Z"/>
  </g>
</svg>
